<?xml version="1.0" standalone="no"?>
<!DOCTYPE svg PUBLIC "-//W3C//DTD SVG 20010904//EN"
 "http://www.w3.org/TR/2001/REC-SVG-20010904/DTD/svg10.dtd">
<svg version="1.0" xmlns="http://www.w3.org/2000/svg"
 width="24.000000pt" height="24.000000pt" viewBox="0 0 24.000000 24.000000"
 preserveAspectRatio="xMidYMid meet">

<g transform="translate(0.000000,24.000000) scale(0.100000,-0.100000)"
fill="#000000" stroke="none">
<path d="M16 230 c14 -5 26 -27 38 -71 10 -35 20 -70 22 -77 2 -8 23 -11 66
-10 l63 2 -62 3 c-91 6 -81 33 12 33 44 0 75 19 75 45 0 7 3 20 6 29 5 14 -6
16 -83 16 -77 0 -92 3 -108 20 -10 11 -25 20 -34 19 -11 0 -10 -3 5 -9z m206
-66 c-6 -30 -36 -44 -97 -44 -39 0 -44 3 -54 31 -6 18 -11 34 -11 35 0 2 38 4
84 4 l83 0 -5 -26z"/>
<path d="M54 39 c-3 -6 0 -17 7 -25 18 -17 44 -2 36 20 -7 18 -33 21 -43 5z
m36 -9 c0 -5 -7 -10 -16 -10 -8 0 -12 5 -9 10 3 6 10 10 16 10 5 0 9 -4 9 -10z"/>
<path d="M163 34 c-7 -20 17 -37 34 -23 15 13 6 39 -13 39 -8 0 -17 -7 -21
-16z m27 -4 c0 -5 -4 -10 -10 -10 -5 0 -10 5 -10 10 0 6 5 10 10 10 6 0 10 -4
10 -10z"/>
</g>
</svg>
