<?xml version="1.0" standalone="no"?>
<!DOCTYPE svg PUBLIC "-//W3C//DTD SVG 20010904//EN"
 "http://www.w3.org/TR/2001/REC-SVG-20010904/DTD/svg10.dtd">
<svg version="1.0" xmlns="http://www.w3.org/2000/svg"
 width="32.000000pt" height="32.000000pt" viewBox="0 0 32.000000 32.000000"
 preserveAspectRatio="xMidYMid meet">

<g transform="translate(0.000000,32.000000) scale(0.100000,-0.100000)"
fill="#000000" stroke="none">
<path d="M92 303 c-79 -39 -112 -134 -73 -210 31 -61 74 -88 141 -88 67 0 110
27 141 88 67 130 -77 275 -209 210z m134 -14 c31 -15 48 -32 63 -63 24 -48 26
-70 10 -115 l-11 -31 -37 37 c-34 33 -37 39 -27 65 15 40 -18 83 -64 83 -46 0
-79 -43 -64 -83 10 -26 7 -32 -27 -65 l-37 -37 -11 31 c-16 45 -14 67 10 115
14 30 32 48 62 63 53 26 80 26 133 0z m-26 -49 c24 -24 25 -38 4 -68 -29 -42
-104 -17 -104 35 0 20 38 53 60 53 11 0 29 -9 40 -20z m43 -131 c34 -34 32
-46 -13 -77 -43 -29 -97 -29 -140 1 -45 30 -47 42 -13 76 25 25 37 29 83 29
46 0 58 -4 83 -29z"/>
</g>
</svg>
